<svg id="Layer_1" data-name="Layer 1" xmlns="http://www.w3.org/2000/svg" viewBox="0 0 1600 1600"><defs><style>.cls-1{fill:#707070;}.cls-2{fill:#b5b5a1;}</style></defs><polyline class="cls-1" points="654.55 654.54 290.91 1309.09 945.46 945.45 1309.09 290.91"/><path class="cls-1" d="M1000,200c-441.83,0-800,358.17-800,800s358.17,800,800,800,800-358.17,800-800S1441.83,200,1000,200Zm0,1454.55c-361.5,0-654.55-293-654.55-654.55S638.5,345.45,1000,345.45,1654.55,638.5,1654.55,1000,1361.5,1654.55,1000,1654.55Z" transform="translate(-200 -200)"/><polygon class="cls-2" points="800 1527.27 72.73 72.73 1527.27 800 799.27 800.73 800 1527.27"/><polygon class="cls-1" points="1090.91 945.45 1527.27 800 799.27 800.73 800 1527.27 945.46 1090.91 1381.82 1527.27 1527.27 1381.82 1090.91 945.45"/></svg>