<svg id="Layer_1" data-name="Layer 1" xmlns="http://www.w3.org/2000/svg" viewBox="0 0 1800 1800"><defs><style>.cls-1{fill:#00fff8;}.cls-2{fill:#707070;}.cls-3{fill:#b5b5a1;}</style></defs><rect class="cls-1" width="1800" height="1800" rx="337.63"/><polyline class="cls-2" points="754.55 754.54 390.91 1409.09 1045.46 1045.45 1409.09 390.91"/><path class="cls-2" d="M1000,200c-441.83,0-800,358.17-800,800s358.17,800,800,800,800-358.17,800-800S1441.83,200,1000,200Zm0,1454.55c-361.5,0-654.55-293-654.55-654.55S638.5,345.45,1000,345.45,1654.55,638.5,1654.55,1000,1361.5,1654.55,1000,1654.55Z" transform="translate(-100 -100)"/><polygon class="cls-3" points="900 1627.27 172.73 172.73 1627.27 900 899.27 900.73 900 1627.27"/><polygon class="cls-2" points="1190.91 1045.45 1627.27 900 899.27 900.73 900 1627.27 1045.45 1190.91 1481.82 1627.27 1627.27 1481.82 1190.91 1045.45"/></svg>